HIERARCHY
ROOT hips_JNT
{
    OFFSET 0 0 0
    CHANNELS 6 Xposition Yposition Zposition Zrotation Xrotation Yrotation
    JOINT spine_JNT
    {
        OFFSET -0.000424254 9.31981 2.54342
        CHANNELS 3 Zrotation Xrotation Yrotation
        JOINT spine1_JNT
        {
            OFFSET 0 10.8731 -4.54485e-05
            CHANNELS 3 Zrotation Xrotation Yrotation
            JOINT spine2_JNT
            {
                OFFSET 0 12.4264 -5.95116
                CHANNELS 3 Zrotation Xrotation Yrotation
                JOINT neck_JNT
                {
                    OFFSET 0 13.9797 -1.46048
                    CHANNELS 3 Zrotation Xrotation Yrotation
                    JOINT head_JNT
                    {
                        OFFSET 0 5.8702 2.0915
                        CHANNELS 3 Zrotation Xrotation Yrotation
                        End Site
                        {
                            OFFSET 0 0 0
                        }
                    }
                }
                JOINT l_shoulder_JNT
                {
                    OFFSET 4.39914 12.861 -1.48501
                    CHANNELS 3 Zrotation Xrotation Yrotation
                    JOINT l_arm_JNT
                    {
                        OFFSET 8.75735 -2.31198 -0.0490516
                        CHANNELS 3 Zrotation Xrotation Yrotation
                        JOINT l_forearm_JNT
                        {
                            OFFSET 26.9001 -4.76837e-05 1.2666e-05
                            CHANNELS 3 Zrotation Xrotation Yrotation
                            JOINT l_hand_JNT
                            {
                                OFFSET 23.0148 -4.76837e-05 -3.72529e-06
                                CHANNELS 3 Zrotation Xrotation Yrotation
                                JOINT l_handThumb1_JNT
                                {
                                    OFFSET 3.63 -0.779998 2.13
                                    CHANNELS 3 Zrotation Xrotation Yrotation
                                    JOINT l_handThumb2_JNT
                                    {
                                        OFFSET 3.55114 -2.11837 2.24006
                                        CHANNELS 3 Zrotation Xrotation Yrotation
                                        JOINT l_handThumb3_JNT
                                        {
                                            OFFSET 2.15911 -1.11631 0.963467
                                            CHANNELS 3 Zrotation Xrotation Yrotation
                                            End Site
                                            {
                                                OFFSET 0 0 0
                                            }
                                        }
                                    }
                                }
                                JOINT l_handIndex1_JNT
                                {
                                    OFFSET 10.5149 -0.0410199 2.19757
                                    CHANNELS 3 Zrotation Xrotation Yrotation
                                    JOINT l_handIndex2_JNT
                                    {
                                        OFFSET 2.75183 -0.102866 -0.139054
                                        CHANNELS 3 Zrotation Xrotation Yrotation
                                        JOINT l_handIndex3_JNT
                                        {
                                            OFFSET 2.35301 -0.0733972 -0.0904871
                                            CHANNELS 3 Zrotation Xrotation Yrotation
                                            End Site
                                            {
                                                OFFSET 0 0 0
                                            }
                                        }
                                    }
                                }
                                JOINT l_handMiddle1_JNT
                                {
                                    OFFSET 10.0671 0.139201 0.0595726
                                    CHANNELS 3 Zrotation Xrotation Yrotation
                                    JOINT l_handMiddle2_JNT
                                    {
                                        OFFSET 3.90903 -0.288403 -0.119066
                                        CHANNELS 3 Zrotation Xrotation Yrotation
                                        JOINT l_handMiddle3_JNT
                                        {
                                            OFFSET 2.3284 -0.0191092 -0.0594396
                                            CHANNELS 3 Zrotation Xrotation Yrotation
                                            End Site
                                            {
                                                OFFSET 0 0 0
                                            }
                                        }
                                    }
                                }
                                JOINT l_handRing1_JNT
                                {
                                    OFFSET 9.46811 0.132239 -1.80983
                                    CHANNELS 3 Zrotation Xrotation Yrotation
                                    JOINT l_handRing2_JNT
                                    {
                                        OFFSET 3.28153 -0.224054 -0.0339366
                                        CHANNELS 3 Zrotation Xrotation Yrotation
                                        JOINT l_handRing3_JNT
                                        {
                                            OFFSET 2.245 -0.0702143 -0.00838935
                                            CHANNELS 3 Zrotation Xrotation Yrotation
                                            End Site
                                            {
                                                OFFSET 0 0 0
                                            }
                                        }
                                    }
                                }
                                JOINT l_handPinky1_JNT
                                {
                                    OFFSET 8.49077 -0.0777721 -3.58415
                                    CHANNELS 3 Zrotation Xrotation Yrotation
                                    JOINT l_handPinky2_JNT
                                    {
                                        OFFSET 2.53217 -0.0730753 -0.0170402
                                        CHANNELS 3 Zrotation Xrotation Yrotation
                                        JOINT l_handPinky3_JNT
                                        {
                                            OFFSET 1.95121 0.0251174 0.0170089
                                            CHANNELS 3 Zrotation Xrotation Yrotation
                                            End Site
                                            {
                                                OFFSET 0 0 0
                                            }
                                        }
                                    }
                                }
                            }
                        }
                    }
                }
                JOINT r_shoulder_JNT
                {
                    OFFSET -4.39782 12.8606 -1.48501
                    CHANNELS 3 Zrotation Xrotation Yrotation
                    JOINT r_arm_JNT
                    {
                        OFFSET -8.75732 -2.312 -0.0490502
                        CHANNELS 3 Zrotation Xrotation Yrotation
                        JOINT r_forearm_JNT
                        {
                            OFFSET -26.9 0 1.00583e-05
                            CHANNELS 3 Zrotation Xrotation Yrotation
                            JOINT r_hand_JNT
                            {
                                OFFSET -23.0149 0 0
                                CHANNELS 3 Zrotation Xrotation Yrotation
                                JOINT r_handThumb1_JNT
                                {
                                    OFFSET -3.63 -0.779998 2.13
                                    CHANNELS 3 Zrotation Xrotation Yrotation
                                    JOINT r_handThumb2_JNT
                                    {
                                        OFFSET -3.5512 -2.118 2.24006
                                        CHANNELS 3 Zrotation Xrotation Yrotation
                                        JOINT r_handThumb3_JNT
                                        {
                                            OFFSET -2.1591 -1.116 0.963467
                                            CHANNELS 3 Zrotation Xrotation Yrotation
                                            End Site
                                            {
                                                OFFSET 0 0 0
                                            }
                                        }
                                    }
                                }
                                JOINT r_handIndex1_JNT
                                {
                                    OFFSET -10.5149 -0.0409961 2.19756
                                    CHANNELS 3 Zrotation Xrotation Yrotation
                                    JOINT r_handIndex2_JNT
                                    {
                                        OFFSET -2.7518 -0.102997 -0.13905
                                        CHANNELS 3 Zrotation Xrotation Yrotation
                                        JOINT r_handIndex3_JNT
                                        {
                                            OFFSET -2.353 -0.0730038 -0.0904899
                                            CHANNELS 3 Zrotation Xrotation Yrotation
                                            End Site
                                            {
                                                OFFSET 0 0 0
                                            }
                                        }
                                    }
                                }
                                JOINT r_handMiddle1_JNT
                                {
                                    OFFSET -10.0671 0.139999 0.05957
                                    CHANNELS 3 Zrotation Xrotation Yrotation
                                    JOINT r_handMiddle2_JNT
                                    {
                                        OFFSET -3.9091 -0.288999 -0.11907
                                        CHANNELS 3 Zrotation Xrotation Yrotation
                                        JOINT r_handMiddle3_JNT
                                        {
                                            OFFSET -2.3284 -0.019002 -0.05944
                                            CHANNELS 3 Zrotation Xrotation Yrotation
                                            End Site
                                            {
                                                OFFSET 0 0 0
                                            }
                                        }
                                    }
                                }
                                JOINT r_handRing1_JNT
                                {
                                    OFFSET -9.4681 0.133002 -1.80983
                                    CHANNELS 3 Zrotation Xrotation Yrotation
                                    JOINT r_handRing2_JNT
                                    {
                                        OFFSET -3.2816 -0.224996 -0.0339396
                                        CHANNELS 3 Zrotation Xrotation Yrotation
                                        JOINT r_handRing3_JNT
                                        {
                                            OFFSET -2.245 -0.0699997 -0.0083901
                                            CHANNELS 3 Zrotation Xrotation Yrotation
                                            End Site
                                            {
                                                OFFSET 0 0 0
                                            }
                                        }
                                    }
                                }
                                JOINT r_handPinky1_JNT
                                {
                                    OFFSET -8.4908 -0.0769973 -3.58415
                                    CHANNELS 3 Zrotation Xrotation Yrotation
                                    JOINT r_handPinky2_JNT
                                    {
                                        OFFSET -2.5322 -0.0740051 -0.0170402
                                        CHANNELS 3 Zrotation Xrotation Yrotation
                                        JOINT r_handPinky3_JNT
                                        {
                                            OFFSET -1.9512 0.0259995 0.0170097
                                            CHANNELS 3 Zrotation Xrotation Yrotation
                                            End Site
                                            {
                                                OFFSET 0 0 0
                                            }
                                        }
                                    }
                                }
                            }
                        }
                    }
                }
            }
        }
    }
    JOINT l_upleg_JNT
    {
        OFFSET 10.0614 -5.18575 -0.706233
        CHANNELS 3 Zrotation Xrotation Yrotation
        JOINT l_leg_JNT
        {
            OFFSET -0.348572 -45.5824 -0.819168
            CHANNELS 3 Zrotation Xrotation Yrotation
            JOINT l_foot_JNT
            {
                OFFSET 0.349145 -42.3325 -1.70849
                CHANNELS 3 Zrotation Xrotation Yrotation
                JOINT l_toebase_JNT
                {
                    OFFSET 0.0702709 -8.12666 12.8887
                    CHANNELS 3 Zrotation Xrotation Yrotation
                    End Site
                    {
                        OFFSET 0 0 0
                    }
                }
            }
        }
    }
    JOINT r_upleg_JNT
    {
        OFFSET -10.061 -5.18577 -0.706233
        CHANNELS 3 Zrotation Xrotation Yrotation
        JOINT r_leg_JNT
        {
            OFFSET 0.34858 -45.5824 -0.819165
            CHANNELS 3 Zrotation Xrotation Yrotation
            JOINT r_foot_JNT
            {
                OFFSET -0.34918 -42.3325 -1.70849
                CHANNELS 3 Zrotation Xrotation Yrotation
                JOINT r_toebase_JNT
                {
                    OFFSET -0.0702001 -8.12666 12.8887
                    CHANNELS 3 Zrotation Xrotation Yrotation
                    End Site
                    {
                        OFFSET 0 0 0
                    }
                }
            }
        }
    }
}
MOTION
Frames: 6
Frame Time: 0.033333
-0.406971 101.32 0.0358271 0.219945 6.12961 35.2626 7.43635 0.00539207 0.0395647 2.63015 1.89974 -3.10309 8.53774e-07 8.53774e-07 0 -2.85938 -4.96665 2.00654 8.47542 8.44451 -0.542484 8.53774e-07 8.53774e-07 0 10.2234 -20.4796 -37.576 106.789 -26.1449 -19.5725 3.20166e-07 -6.83019e-06 0.0559529 4.10661 20.7048 -22.2077 -0 0 0 -0.836374 -0.000610438 0.068528 -1.31501 0.394463 0 -1.69075 0.507138 0 -1.12715 0.338119 0.0395647 -1.53857 0.307673 0 -1.97817 0.395549 0.0559529 -1.31877 0.263728 0 -1.75639 -0.175611 0.0559529 -2.25822 -0.225763 0.0395647 -1.50548 -0.15053 0 -1.92322 -0.384565 0 -2.47273 -0.494381 0 -1.64847 -0.329644 0 8.53774e-07 8.53774e-07 0 58.1024 -5.81692 -10.4517 -11.9536 -0.0931523 0.888227 -3.84198e-06 -2.98821e-06 0 -4.10661 20.7048 22.2077 -0 0 0 16.779 0.243986 1.65512 26.5466 7.63653 -1.80445 34.2592 9.58574 -2.9603 22.7183 6.60884 -1.33058 30.9833 5.87833 -1.62939 39.9222 7.3139 -2.65974 26.5324 5.1053 -1.20527 35.2821 -3.30575 1.05275 45.3932 -4.07226 1.70451 30.233 -2.88251 0.779335 38.802 -7.14342 2.51824 50.0431 -8.7159 4.07442 33.2132 -6.2519 1.86586 8.1128 -16.9423 12.1366 -5.46927 17.4791 0.634271 -2.37608 1.76654 -0.262442 -1.50486e-14 -5.06928e-07 0 -2.25226 -3.69811 7.40961 -2.15854 25.6455 0.333378 -0.434329 -0.145382 0.131221 0.131756 -27.5795 0.555317 
-1.8841 101.329 0.0468635 0.118219 6.71528 35.3615 5.90356 0.00675344 0 3.00103 1.88246 -2.87254 -6.4033e-07 8.53774e-07 0 0.0740983 -7.66294 0.0559529 7.9944 8.66299 -0.520393 -6.4033e-07 8.53774e-07 0 10.9391 -35.8096 -40.807 97.5786 -34.3897 -30.3268 -4.26887e-07 3.18055e-15 0 4.10661 20.7048 -22.2077 -0 0 0 -0.473546 -0.00019569 0 -0.744538 0.223354 0 -0.957266 0.287164 0 -0.638174 0.191448 0 -0.871113 0.174215 0 -1.12 0.223985 0 -0.746668 0.149329 0 -0.994448 -0.0994397 0 -1.27858 -0.127847 0 -0.852383 -0.0852351 0.0559529 -1.08889 -0.217764 0 -1.40001 -0.279972 0 -0.933336 -0.186658 0 -6.4033e-07 8.53774e-07 0 58.574 -5.97048 -10.7998 -13.6741 -0.053897 0 4.05542e-06 -3.84198e-06 0.0559529 -4.10661 20.7048 22.2077 -0 0 0 16.6506 0.240291 1.64183 26.3409 7.58227 -1.77515 33.9921 9.52123 -2.91608 22.5429 6.56089 -1.30923 30.7445 5.83775 -1.60568 39.6134 7.26718 -2.6209 26.3282 5.06901 -1.18695 35.0114 -3.28369 1.03551 45.0445 -4.04782 1.67953 30.0011 -2.8625 0.765146 38.5019 -7.09727 2.48098 49.6543 -8.66691 4.01578 32.957 -6.20946 1.83925 8.77701 -17.3217 15.1118 -4.49093 16.4035 0.274112 -4.92907 3.70918 -0.4597 -2.13443e-07 1.06722e-07 0 -3.19449 -4.27815 4.95245 -0.654007 24.836 -0.176939 -0.872272 -0.257262 0.237388 0.106908 -28.4409 0.492577 
-4.12623 101.303 -0.00605846 -0.877143 6.89854 34.6783 4.95033 0.00678749 0.0559529 3.5793 1.87872 -2.31888 -1.28066e-06 -6.4033e-07 0 3.61661 -10.2041 -2.45018 6.38622 9.16121 -0.444113 -1.28066e-06 -6.4033e-07 0 13.1111 -49.8455 -44.7729 87.3018 -38.4546 -40.1644 -6.4033e-07 7.15625e-15 0 4.10661 20.7048 -22.2077 -0 0 0 -0.378689 -0.000125144 0.0559529 -0.595397 0.178615 0 -0.765512 0.229645 0 -0.510339 0.153099 0 -0.696618 0.13932 0 -0.895652 0.179123 0 -0.5971 0.119418 0 -0.795247 -0.0795221 0 -1.02246 -0.102241 0 -0.681641 -0.0681624 0 -0.870773 -0.174147 0 -1.11957 -0.223898 0.0395647 -0.746376 -0.149271 0 -1.28066e-06 -6.4033e-07 0 59.5463 -5.89006 -11.2335 -16.3475 -0.401466 0 7.04363e-06 1.10991e-05 0 -4.10661 20.7048 22.2077 -0 0 0 16.5066 0.236182 1.62939 26.1105 7.52133 -1.74625 33.6928 9.44869 -2.86708 22.3462 6.50708 -1.28692 30.4768 5.79215 -1.57913 39.2673 7.21457 -2.57693 26.0994 5.02827 -1.16632 34.708 -3.25887 1.01951 44.6537 -4.02025 1.65134 29.7412 -2.84002 0.754847 38.1657 -7.04532 2.44026 49.2187 -8.61153 3.95013 32.6698 -6.16175 1.80791 11.0886 -17.7898 18.4322 -3.28328 15.1553 0.0395647 -7.69748 5.75053 -0.479697 -2.13443e-07 -5.33609e-08 0 -2.31601 -5.65639 3.76485 0.618869 24.575 -0.637962 -1.30306 -0.359494 0.326259 0.0595268 -27.8908 0.29342 
-6.80283 101.251 -0.130871 -2.34583 6.7536 33.2837 4.65189 0.00568106 0.0395647 4.13706 1.897 -1.64802 -0 0 0 6.87066 -11.5333 -4.61346 4.03856 9.38157 -0.288035 -0 0 0 11.0617 -61.2574 -52.1245 75.1515 -40.1615 -50.8261 -1.28066e-06 -3.41509e-06 0 4.10661 20.7048 -22.2077 -0 0 0 -0.485423 -0.000205629 0.0395647 -0.763211 0.228955 0 -0.981275 0.294365 0 -0.65418 0.196249 0 -0.892961 0.178584 0 -1.14809 0.229602 0.0395647 -0.765394 0.153074 0 -1.01939 -0.101933 0 -1.31064 -0.131053 0 -0.873761 -0.0873727 0.0395647 -1.1162 -0.223225 0 -1.43512 -0.286992 0.0395647 -0.956744 -0.191339 0 -0 0 0 60.9772 -5.55868 -11.1623 -19.2336 -0.911941 0.068528 -0 1.70755e-06 0.0559529 -4.10661 20.7048 22.2077 -0 0 0 16.3999 0.233156 1.61878 25.9397 7.47606 -1.72324 33.471 9.39472 -2.83026 22.2004 6.46712 -1.26916 30.2783 5.75825 -1.55868 39.0106 7.17538 -2.54483 25.9296 4.998 -1.14943 34.4829 -3.2404 1.00716 44.3639 -3.99969 1.63131 29.5485 -2.82331 0.743354 37.9164 -7.00663 2.40862 48.8957 -8.57015 3.90188 32.4568 -6.12626 1.78394 13.8845 -17.4169 19.0266 -2.37609 11.9513 -0.311533 -10.4307 7.40989 0.104678 8.53774e-07 -4.26887e-07 0 0.201944 -7.43491 4.45531 1.16891 24.6671 -0.92872 -1.71341 -0.4965 0.375344 0.00781192 -25.9075 0.0395647 
-9.46319 101.212 -0.274014 -3.47577 6.6207 31.6211 4.58116 0.00491973 0 4.44808 1.91692 -1.21626 2.13443e-07 3.27995e-15 0 8.93311 -11.292 -6.01218 2.04687 8.98918 -0.142652 2.13443e-07 3.27995e-15 0 -1.39526 -68.8903 -67.7325 61.5472 -39.7004 -62.4518 -1.28066e-06 6.83019e-06 0 4.10661 20.7048 -22.2077 -0 0 0 -0.58674 -0.000300424 0.0559529 -0.922511 0.276739 0.0395647 -1.18609 0.355797 0 -0.790722 0.237208 0 -1.07934 0.215854 0 -1.38773 0.277516 0 -0.925149 0.185021 0 -1.23216 -0.123206 0 -1.5842 -0.1584 0 -1.05613 -0.105607 0 -1.34918 -0.269809 0 -1.73467 -0.346876 0 -1.15644 -0.231271 0 2.13443e-07 3.27995e-15 0 62.5409 -5.11557 -10.7368 -21.4218 -1.42342 0 3.41509e-06 -4.26887e-07 0 -4.10661 20.7048 22.2077 -0 0 0 16.362 0.232089 1.61394 25.8791 7.45999 -1.71596 33.3924 9.37556 -2.81751 22.1487 6.45294 -1.26422 30.2079 5.74621 -1.55113 38.9196 7.16146 -2.53374 25.8695 4.98726 -1.14738 34.4032 -3.23385 1.00092 44.2612 -3.99237 1.62409 29.4802 -2.81738 0.742301 37.828 -6.99289 2.39852 48.7813 -8.55541 3.88519 32.3813 -6.11366 1.77691 15.498 -15.7241 15.1978 -1.83059 6.02222 -0.677239 -12.5768 8.15128 1.3876 2.56132e-06 -4.69576e-06 0 3.06209 -8.95249 6.47256 1.0032 24.4019 -1.05646 -2.10094 -0.691019 0.411168 -0.0260945 -23.4103 -0.131221 
-11.7496 101.229 -0.342703 -3.75536 6.68409 29.9691 4.40727 0.00426782 0 4.43178 1.92068 -1.16431 6.4033e-07 -9.60495e-07 0 9.39513 -10.2611 -6.37073 1.23163 8.59141 0.068528 -1.06722e-06 -5.33608e-07 0 -24.0553 -71.6828 -91.4649 48.3308 -37.2328 -73.7948 -8.53774e-07 -3.41509e-06 0 4.10661 20.7048 -22.2077 -0 0 0 -0.625299 -0.000341208 0.0559529 -0.983137 0.294924 0 -1.26404 0.379176 0.0395647 -0.842687 0.252795 0 -1.15027 0.230038 0 -1.47893 0.29575 0 -0.985948 0.197179 0 -1.31313 -0.131301 0.0395647 -1.68831 -0.168806 0 -1.12554 -0.112547 0 -1.43785 -0.287537 0.0395647 -1.84867 -0.369665 0 -1.23244 -0.246467 0 -1.06722e-06 -5.33608e-07 0 63.8526 -4.70882 -10.2182 -22.5634 -1.75716 0 -3.41509e-06 -1.92099e-06 0 -4.10661 20.7048 22.2077 -0 0 0 16.3842 0.232715 1.61733 25.9147 7.46942 -1.72097 33.4385 9.38681 -2.825 22.1791 6.46126 -1.26855 30.2492 5.75328 -1.55717 38.973 7.16963 -2.53991 25.9048 4.99356 -1.14806 34.45 -3.2377 1.0056 44.3215 -3.99667 1.62843 29.5203 -2.82086 0.741245 37.8798 -7.00096 2.40439 48.8485 -8.56407 3.89485 32.4256 -6.12106 1.78131 15.1859 -12.7868 9.56032 -0.508407 -1.27383 -0.896123 -13.8856 8.34996 2.7194 8.53774e-07 8.53774e-07 0 4.91571 -9.8291 8.19393 0.471538 23.1433 -1.1467 -3.12727 -1.80815 0.259443 -0.00032068 -19.1284 0 
